<svg width="12" height="11" viewBox="0 0 12 11" fill="none" xmlns="http://www.w3.org/2000/svg">
<path d="M5.75806 0.610596C4.65481 0.610596 3.57634 0.901026 2.65902 1.44516C1.7417 1.98929 1.02674 2.76269 0.604544 3.66755C0.182348 4.57241 0.0718831 5.5681 0.287116 6.52869C0.502349 7.48929 1.03361 8.37165 1.81373 9.0642C2.59384 9.75675 3.58777 10.2284 4.66982 10.4195C5.75187 10.6105 6.87345 10.5125 7.89271 10.1377C8.91198 9.76286 9.78317 9.12815 10.3961 8.31379C11.009 7.49944 11.3362 6.54202 11.3362 5.5626C11.3344 4.24972 10.7462 2.99106 9.70047 2.06271C8.65475 1.13436 7.23694 0.612138 5.75806 0.610596ZM5.75806 9.93202C4.7846 9.93202 3.83301 9.67576 3.02361 9.19564C2.21421 8.71552 1.58336 8.03312 1.21084 7.23471C0.838314 6.4363 0.740845 5.55776 0.930757 4.71017C1.12067 3.86259 1.58943 3.08403 2.27777 2.47296C2.9661 1.86188 3.8431 1.44574 4.79785 1.27714C5.7526 1.10855 6.74222 1.19508 7.64158 1.52579C8.54093 1.8565 9.30963 2.41654 9.85045 3.13508C10.3913 3.85363 10.6799 4.69841 10.6799 5.5626C10.6785 6.72105 10.1595 7.83168 9.23675 8.65083C8.31403 9.46998 7.06298 9.93074 5.75806 9.93202ZM9.14868 5.5626C9.14868 5.63986 9.11411 5.71395 9.05258 5.76858C8.99104 5.82321 8.90758 5.8539 8.82056 5.8539H5.75806C5.67103 5.8539 5.58758 5.82321 5.52604 5.76858C5.4645 5.71395 5.42993 5.63986 5.42993 5.5626V2.84385C5.42993 2.7666 5.4645 2.69251 5.52604 2.63788C5.58758 2.58325 5.67103 2.55256 5.75806 2.55256C5.84508 2.55256 5.92854 2.58325 5.99008 2.63788C6.05161 2.69251 6.08618 2.7666 6.08618 2.84385V5.27131H8.82056C8.90758 5.27131 8.99104 5.302 9.05258 5.35663C9.11411 5.41126 9.14868 5.48535 9.14868 5.5626Z" fill="white"/>
</svg>
