<svg width="17" height="11" viewBox="0 0 17 11" fill="none" xmlns="http://www.w3.org/2000/svg">
<path d="M5.83333 9.49992C5.83333 9.32311 5.90357 9.15354 6.0286 9.02851C6.15362 8.90349 6.32319 8.83325 6.5 8.83325H10.5C10.6768 8.83325 10.8464 8.90349 10.9714 9.02851C11.0964 9.15354 11.1667 9.32311 11.1667 9.49992C11.1667 9.67673 11.0964 9.8463 10.9714 9.97132C10.8464 10.0963 10.6768 10.1666 10.5 10.1666H6.5C6.32319 10.1666 6.15362 10.0963 6.0286 9.97132C5.90357 9.8463 5.83333 9.67673 5.83333 9.49992ZM3.16667 5.49992C3.16667 5.32311 3.2369 5.15354 3.36193 5.02851C3.48695 4.90349 3.65652 4.83325 3.83333 4.83325H13.1667C13.3435 4.83325 13.513 4.90349 13.6381 5.02851C13.7631 5.15354 13.8333 5.32311 13.8333 5.49992C13.8333 5.67673 13.7631 5.8463 13.6381 5.97132C13.513 6.09635 13.3435 6.16658 13.1667 6.16658H3.83333C3.65652 6.16658 3.48695 6.09635 3.36193 5.97132C3.2369 5.8463 3.16667 5.67673 3.16667 5.49992ZM0.5 1.49992C0.5 1.32311 0.570238 1.15354 0.695262 1.02851C0.820287 0.90349 0.989856 0.833252 1.16667 0.833252H15.8333C16.0101 0.833252 16.1797 0.90349 16.3047 1.02851C16.4298 1.15354 16.5 1.32311 16.5 1.49992C16.5 1.67673 16.4298 1.8463 16.3047 1.97132C16.1797 2.09635 16.0101 2.16659 15.8333 2.16659H1.16667C0.989856 2.16659 0.820287 2.09635 0.695262 1.97132C0.570238 1.8463 0.5 1.67673 0.5 1.49992Z" fill="#4F4E4E"/>
</svg>
